<svg width="10" height="10" viewBox="0 0 10 10" fill="none" xmlns="http://www.w3.org/2000/svg">
<g clip-path="url(#clip0_1_15)">
<path d="M5 0.832031C7.30078 0.832031 9.16797 2.69922 9.16797 5C9.16797 7.30078 7.30078 9.16797 5 9.16797C2.69922 9.16797 0.832031 7.30078 0.832031 5C0.832031 2.69922 2.69922 0.832031 5 0.832031ZM2.50781 6.42188C3.12109 7.33594 4.03906 7.91797 5.06641 7.91797C6.09375 7.91797 7.01172 7.33594 7.625 6.42188C6.92969 5.77344 6.01563 5.41406 5.06641 5.41797C4.11719 5.41406 3.20313 5.77344 2.50781 6.42188ZM5 4.58203C5.69141 4.58203 6.25 4.02344 6.25 3.33203C6.25 2.64453 5.69141 2.08203 5 2.08203C4.30859 2.08203 3.75 2.64453 3.75 3.33203C3.75 4.02344 4.30859 4.58203 5 4.58203Z" fill="#418FC8"/>
</g>
<defs>
<clipPath id="clip0_1_15">
<rect width="10" height="10" fill="white"/>
</clipPath>
</defs>
</svg>
