<svg width="12" height="12" viewBox="0 0 12 12" fill="none" xmlns="http://www.w3.org/2000/svg">
<g clip-path="url(#clip0_1_18)">
<path d="M12 3.05156C12 2.51719 11.5687 2.08594 11.0344 2.08594H0.965626C0.43125 2.08594 0 2.51719 0 3.05156V8.9625C0 9.48281 0.43125 9.91406 0.965626 9.91406H11.0484C11.5828 9.91406 12.0141 9.48281 12.0141 8.94844V3.05156H12ZM10.9547 3.13125V4.04531H1.04531V3.13125H10.9547ZM1.04531 8.86875V5.61094H10.9547V8.86875H1.04531ZM9.97969 7.17188C9.97969 7.4625 9.74531 7.69688 9.45469 7.69688H6.97969C6.68906 7.69688 6.45469 7.4625 6.45469 7.17188C6.45469 6.88594 6.68906 6.65156 6.97969 6.65156H9.45469C9.74531 6.65156 9.97969 6.88594 9.97969 7.17188Z" fill="black"/>
</g>
<defs>
<clipPath id="clip0_1_18">
<rect width="12" height="12" fill="white"/>
</clipPath>
</defs>
</svg>
