<svg width="11" height="11" viewBox="0 0 11 11" fill="none" xmlns="http://www.w3.org/2000/svg">
<g clip-path="url(#clip0_1_21)">
<path d="M7.63125 6.72461C8.27578 6.72461 8.8 6.20039 8.8 5.55586V2.02383C8.8 1.3793 8.27578 0.85508 7.63125 0.85508H1.16875C0.524218 0.85508 0 1.3793 0 2.02383V5.55586C0 6.20039 0.524218 6.72461 1.16875 6.72461H2.01523V7.94492C2.01523 8.09531 2.10547 8.22852 2.24297 8.28438C2.29023 8.30156 2.3375 8.31016 2.38477 8.31016C2.4793 8.31016 2.57383 8.27578 2.64258 8.20274L4.125 6.72461H7.63125Z" fill="black"/>
<path d="M9.97734 3.91016H9.38867V5.55586C9.38867 6.52266 8.60234 7.30898 7.63125 7.30898H4.36992L3.68242 7.99648C3.76406 8.47773 4.18515 8.84727 4.68789 8.84727H7.53242L8.72265 10.0375C8.7914 10.1062 8.88593 10.1449 8.98476 10.1449C9.03203 10.1449 9.07929 10.1363 9.12226 10.1191C9.25976 10.059 9.35 9.92578 9.35 9.77969V8.84727H9.97734C10.5402 8.84727 11 8.3875 11 7.82461V4.93281C11 4.36992 10.5402 3.91016 9.97734 3.91016Z" fill="black"/>
</g>
<defs>
<clipPath id="clip0_1_21">
<rect width="11" height="11" fill="white"/>
</clipPath>
</defs>
</svg>
