<svg width="10" height="10" viewBox="0 0 10 10" fill="none" xmlns="http://www.w3.org/2000/svg">
<g clip-path="url(#clip0_1_25)">
<path d="M9.82422 3.92969L8.57422 2.91016V1.28125C8.57422 1.09766 8.42188 0.945312 8.23828 0.945312H7.45313C7.26953 0.945312 7.1211 1.09766 7.1211 1.28125V1.72656L5.44922 0.363281C5.32813 0.265625 5.16797 0.210938 5 0.210938C4.83203 0.210938 4.67188 0.265625 4.55078 0.363281L0.175783 3.92969C-0.0234354 4.09375 -0.0117167 4.23437 0.0117209 4.30469C0.0390646 4.375 0.11719 4.48828 0.375002 4.48828H0.972658V9.18359C0.972658 9.51562 1.2461 9.78906 1.57813 9.78906H3.47266C3.80078 9.78906 4.0625 9.52344 4.0625 9.18359V7.25781C4.0625 7.09375 4.21094 6.94141 4.37891 6.94141H5.65235C5.8086 6.94141 5.9375 7.08594 5.9375 7.25781V9.18359C5.9375 9.51172 6.22266 9.78906 6.5586 9.78906H8.42188C8.75391 9.78906 9.02735 9.51562 9.02735 9.18359V4.48828H9.625C9.88281 4.48828 9.96094 4.375 9.98828 4.30469C10.0117 4.23437 10.0234 4.09375 9.82422 3.92969Z" fill="black"/>
</g>
<defs>
<clipPath id="clip0_1_25">
<rect width="10" height="10" fill="white"/>
</clipPath>
</defs>
</svg>
